{"title":"The Raven (1963) 720p BDRip Legendado PT-BR","uid":13993740,"size":2163674644,"categoryP":"video","categoryS":"hd___movies","magnet":"?xt=urn:btih:40b254426162c97af3a0d1051016d55d49d5fff0&amp;dn=The+Raven+%281963%29+720p+BDRip+Legendado+PT-BR&amp;tr=udp%3A%2F%2Ftracker.leechers-paradise.org%3A6969&amp;tr=udp%3A%2F%2Fzer0day.ch%3A1337&amp;tr=udp%3A%2F%2Fopen.demonii.com%3A1337&amp;tr=udp%3A%2F%2Ftracker.coppersurfer.tk%3A6969&amp;tr=udp%3A%2F%2Fexodus.desync.com%3A6969","seeders":1,"leechers":0,"uploader":null,"files":1,"time":1458724280,"description":"Audio: English\r\nLegendas/Subtitles: Português / English\r\n\r\n=========================================\r\n\r\nA magician who has been turned into a raven turns to a former sorcerer for help. \r\n\r\n=========================================\r\n\r\nVideo\r\nID                             : 1\r\nFormat                         : AVC\r\nFormat/Info                    : Advanced Video Codec\r\nFormat profile                 :   \r\nFormat settings, CABAC         : Yes\r\nFormat settings, ReFrames      : 4 frames\r\nCodec ID                       : V_MPEG4/ISO/AVC\r\nDuration                       : 1h 26mn\r\nBit rate                       : 2 899 Kbps\r\nWidth                          : 1 280 pixels\r\nHeight                         : 544 pixels\r\nDisplay aspect ratio           : 2.35:1\r\nFrame rate mode                : Constant\r\nFrame rate                     : 23.976 fps\r\nColor space                    : YUV\r\nChroma subsampling             : 4:2:0\r\nBit depth                      : 8 bits\r\nScan type                      : Progressive\r\nBits/(Pixel*Frame)             : 0.174\r\nStream size                    : 1.71 GiB (85%)\r\n\r\n\r\nAudio\r\nID                             : 2\r\nFormat                         : AC-3\r\nFormat/Info                    : Audio Coding 3\r\nMode extension                 : CM (complete main)\r\nFormat settings, Endianness    : Big\r\nCodec ID                       : A_AC3\r\nDuration                       : 1h 26mn\r\nBit rate mode                  : Constant\r\nBit rate                       : 448 Kbps\r\nChannel(s)                     : 1 channel\r\nChannel positions              : Front: C\r\nSampling rate                  : 48.0 KHz\r\nBit depth                      : 16 bits\r\nCompression mode               : Lossy\r\nStream size                    : 276 MiB (13%)\r\nTitle                          : English\r\nLanguage                       : English\r\nDefault                        : Yes\r\nForced                         : No\r\n\r\nText #1\r\nID                             : 3\r\nFormat                         : UTF-8\r\nCodec ID                       : S_TEXT/UTF8\r\nCodec ID/Info                  : UTF-8 Plain Text\r\nTitle                          : Portuguese\r\nLanguage                       : Portuguese\r\nDefault                        : Yes\r\nForced                         : No\r\n\r\nText #2\r\nID                             : 4\r\nFormat                         : UTF-8\r\nCodec ID                       : S_TEXT/UTF8\r\nCodec ID/Info                  : UTF-8 Plain Text\r\nTitle                          : English\r\nLanguage                       : English\r\nDefault                        : No\r\nForced                         : No","torrent":{"xt":"urn:btih:40b254426162c97af3a0d1051016d55d49d5fff0","amp;dn":"The+Raven+%281963%29+720p+BDRip+Legendado+PT-BR","amp;tr":["udp%3A%2F%2Ftracker.leechers-paradise.org%3A6969","udp%3A%2F%2Fzer0day.ch%3A1337","udp%3A%2F%2Fopen.demonii.com%3A1337","udp%3A%2F%2Ftracker.coppersurfer.tk%3A6969","udp%3A%2F%2Fexodus.desync.com%3A6969"],"infoHash":"40b254426162c97af3a0d1051016d55d49d5fff0","infoHashBuffer":{"type":"Buffer","data":[64,178,84,66,97,98,201,122,243,160,209,5,16,22,213,93,73,213,255,240]},"announce":[],"urlList":[]}}